<svg width="28" height="28.000002" viewBox="0 0 7.4083332 7.4083338" xml:space="preserve" xmlns:xlink="http://www.w3.org/1999/xlink" xmlns="http://www.w3.org/2000/svg"><defs><linearGradient id="a"><stop style="stop-color:#000;stop-opacity:1" offset="0"/><stop style="stop-color:#000;stop-opacity:.49911818" offset="1"/></linearGradient><linearGradient xlink:href="#a" id="b" x1=".75" y1="16.0005" x2="31.249001" y2="16.0005" gradientUnits="userSpaceOnUse"/><linearGradient xlink:href="#a" id="c" gradientUnits="userSpaceOnUse" x1=".75" y1="16.0005" x2="31.249001" y2="16.0005"/></defs><g transform="translate(-65.355888 -66.45118)"><rect style="display:inline;opacity:1;mix-blend-mode:normal;fill:#fff;fill-opacity:1;stroke:#303030;stroke-width:.215973;stroke-linecap:square;stroke-linejoin:bevel;stroke-dasharray:none;stroke-dashoffset:0;stroke-opacity:1;paint-order:normal" width="7.1923604" height="7.1923609" x="65.463875" y="66.559166" rx="1.3784388" ry="1.3784389"/><g style="fill:url(#b);stroke-width:12.9564;stroke-dasharray:none;paint-order:stroke fill markers" transform="matrix(.19277 0 0 .16008 65.981424 66.202236)"><path d="M16 11.75c-2.347 0-4.25 1.903-4.25 4.25s1.903 4.25 4.25 4.25 4.25-1.903 4.25-4.25v0c-.003-2.346-1.904-4.247-4.25-4.25Zm0 6c-.966 0-1.75-.784-1.75-1.75s.784-1.75 1.75-1.75 1.75.784 1.75 1.75v0c-.001.966-.784 1.749-1.75 1.75ZM3.25 16c.211-3.416 1.61-6.471 3.784-8.789l-.007.008c.223-.226.361-.536.361-.879 0-.69-.56-1.25-1.25-1.25-.344 0-.655.139-.881.363v0C2.628 8.21.947 11.891.751 15.962L.75 16c.198 4.109 1.879 7.79 4.514 10.553l-.006-.006c.226.228.54.369.886.369.69 0 1.249-.559 1.249-1.249 0-.346-.141-.659-.368-.885v0c-2.173-2.307-3.573-5.363-3.774-8.743l-.002-.038Zm6.113 0c.149-2.342 1.109-4.436 2.6-6.026l-.005.005c.224-.226.363-.537.363-.88 0-.69-.56-1.25-1.25-1.25-.345 0-.657.139-.883.365v0c-1.94 2.035-3.179 4.753-3.323 7.759l-.001.028c.145 3.032 1.384 5.75 3.329 7.79l-.005-.005c.226.228.54.369.886.369.69 0 1.249-.559 1.249-1.249 0-.346-.141-.659-.368-.885v0c-1.49-1.581-2.451-3.676-2.591-5.993l-.001-.027ZM26.744 5.453c-.226-.227-.54-.368-.886-.368-.691 0-1.251.56-1.251 1.251 0 .345.139.657.365.883v0c2.168 2.31 3.567 5.365 3.775 8.741l.002.04c-.21 3.417-1.609 6.471-3.784 8.789l.007-.008c-.224.226-.362.537-.362.88 0 .691.56 1.251 1.251 1.251.345 0 .657-.14.883-.365v0c2.628-2.757 4.308-6.439 4.504-10.509l.001-.038c-.198-4.108-1.878-7.79-4.512-10.553l.006.007zm-4.933 2.761c-.226-.224-.537-.363-.881-.363-.69 0-1.25.56-1.25 1.25 0 .343.138.653.361.879v0c1.486 1.585 2.447 3.678 2.594 5.992l.001.028c-.151 2.343-1.111 4.436-2.601 6.027l.005-.005c-.224.226-.362.537-.362.88 0 .691.56 1.251 1.251 1.251.345 0 .657-.14.883-.365v0c1.939-2.036 3.178-4.754 3.323-7.759l.001-.028c-.145-3.033-1.385-5.751-3.331-7.791l.005.005z" style="fill:url(#c);stroke:#000;stroke-width:.569264;stroke-linecap:round;stroke-linejoin:bevel;stroke-dasharray:none;stroke-opacity:1;paint-order:normal"/></g><text xml:space="preserve" style="font-style:normal;font-variant:normal;font-weight:400;font-stretch:normal;font-size:2.82351px;font-family:'Rockwell Extra Bold';-inkscape-font-specification:'Rockwell Extra Bold, ';opacity:1;fill:#000;fill-opacity:1;stroke:#2d2d2d;stroke-width:.214001;stroke-linecap:square;stroke-linejoin:bevel;stroke-dasharray:none;stroke-dashoffset:0;stroke-opacity:1;paint-order:markers stroke fill" x="73.562698" y="65.61261" transform="scale(.89767 1.114)"><tspan style="font-style:normal;font-variant:normal;font-weight:800;font-stretch:normal;font-size:2.82351px;font-family:'Rockwell Extra Bold';-inkscape-font-specification:'Rockwell Extra Bold, Ultra-Bold';fill:#000;fill-opacity:1;stroke:#000;stroke-width:.214001;stroke-opacity:0" x="73.562698" y="65.61261">Cell</tspan></text></g></svg>