<svg width="27.999996" height="28.000002" viewBox="0 0 7.4083322 7.4083338" xml:space="preserve" xmlns:xlink="http://www.w3.org/1999/xlink" xmlns="http://www.w3.org/2000/svg"><defs><linearGradient id="a"><stop style="stop-color:#000;stop-opacity:1" offset=".4951724"/><stop style="stop-color:#3b3b3b;stop-opacity:1" offset="1"/></linearGradient><linearGradient xlink:href="#a" id="b" x1="-12.259238" y1="-23.513872" x2="-4.7095032" y2="-23.513872" gradientUnits="userSpaceOnUse" spreadMethod="pad"/><linearGradient xlink:href="#a" id="d" gradientUnits="userSpaceOnUse" x1="-12.259238" y1="-23.513872" x2="-4.7095032" y2="-23.513872" spreadMethod="pad"/><linearGradient xlink:href="#a" id="c" gradientUnits="userSpaceOnUse" x1="-12.259238" y1="-23.513872" x2="-4.7095032" y2="-23.513872" spreadMethod="pad"/></defs><g transform="translate(-73.449165 -66.298363)"><rect style="display:inline;mix-blend-mode:normal;fill:#fff;fill-opacity:1;stroke:#303030;stroke-width:.215973;stroke-linecap:square;stroke-linejoin:bevel;stroke-dasharray:none;stroke-dashoffset:0;stroke-opacity:1;paint-order:normal" width="7.1923604" height="7.1923609" x="73.557152" y="66.406349" rx="1.7928015" ry="1.7928015"/><g style="fill:url(#b);fill-opacity:.861586;fill-rule:nonzero"><g style="fill:url(#c);fill-opacity:.861586;fill-rule:nonzero" transform="matrix(.65265 0 0 .57503 82.699738 83.508536)"><path style="fill:url(#d);fill-opacity:.861586;fill-rule:nonzero;stroke-width:.838552" d="M-5.4190338-25.721095h-1.3929097v-1.219303c0-.176228-.1807047-.319115-.404814-.319115h-2.6634469c-.2232226 0-.4048136.142887-.4048136.319115v1.219303h-1.264689c-.391527 0-.709531.250052-.709531.559641v4.833553c0 .309589.317119.559641.709531.559641h1.192297v-1.6212l.6192497.0066-.011586 1.614627h.961987l-.011586-1.6212.6134571-.000003.00579 1.6212h.911496l-.034759-1.6212.6308369.01315.011587 1.608053h1.2419022c.3915269 0 .7095318-.250052.7095318-.559641v-4.833553c0-.309589-.3180049-.559641-.7095318-.559641z"/></g></g></g></svg>