<svg xmlns="http://www.w3.org/2000/svg" width="20" height="20" viewBox=".22 -.01 4.79704 4.794897"><rect width="4.548102" height="4.569455" x=".348116" y=".117044" fill="#fff" rx=".356953" ry=".39215"/><rect width="4.608632" height="4.587279" x=".323189" y=".102794" fill="#fff" stroke="#000" stroke-linecap="round" stroke-linejoin="bevel" stroke-width=".200756" opacity=".34" rx=".363198" ry=".394066"/><path fill="#ff7a24" d="M4.708203 2.415316c0-1.127186-.920988-2.04097-2.0573-2.04097-1.135832 0-2.057233.913784-2.057233 2.04097 0 .748758.407796 1.401246 1.013418 1.756892l.131883-.874878c-.195423-.215803-.315368-.500293-.315368-.813259 0-.672455.54963-1.217761 1.2273-1.217761.67815 0 1.227367.545306 1.227367 1.217761 0 .31578-.121385.60226-.319622.817994l.131335.873025c.608435-.354754 1.01822-1.008683 1.01822-1.759774Z"/><path fill="#123467" d="m2.876655 3.03274.249907 1.339146H2.16104l.248945-1.336813c-.246132-.09339-.422068-.329572-.422068-.608366 0-.36045.292175-.652556.652075-.652556.36045 0 .652076.292106.652076.652556 0 .276461-.172574.511134-.415413.606033z"/><path fill="#fff" stroke="#000" stroke-linecap="round" stroke-linejoin="bevel" stroke-width=".008936" d="M.580085 4.55714c-.057272-.028348-.103473-.08375-.130873-.15693C.428244 4.344205.428 4.317598.430745 2.37705L.433525.410642.457038.366694C.492757.299924.530704.259797.581276.235315L.627103.213131H4.63129l.047054.024835c.025879.013659.062544.045099.081477.069867.07146.09348.067-.04554.067 2.0886s.00446 1.99512-.067 2.0886c-.018934.024769-.055598.056209-.081477.069868l-.047054.024835-2.002795-.000009L.625699 4.57972zm2.549206-.191148c0-.005991-.05531-.307004-.12291-.668915-.067601-.361912-.12165-.658964-.120109-.660117.001535-.001151.03403-.018404.072198-.038334.140136-.073179.266189-.23237.316212-.399343.029897-.099793.02546-.264652-.010057-.37367-.070863-.217519-.251932-.386523-.46893-.437686-.224706-.05298-.454184.012412-.617829.176056-.141277.141278-.198517.29446-.188539.504559.004249.089466.011303.124943.03873.194799.066155.168489.19566.29861.372647.374418.001507.000647-.052541.298318-.120108.661496-.067566.363177-.122848.664217-.122848.668977 0 .00476.218597.008654.485771.008654.323208 0 .485772-.003646.485772-.010894zm-1.512303-.226653c.00336-.019083.033325-.215683.06659-.436888l.06048-.40219-.070033-.093315c-.121065-.16131-.198913-.346543-.23193-.55186-.019926-.123917-.008186-.339537.025582-.469802.094956-.366314.370436-.681117.717728-.82018.196914-.078848.403314-.107989.6016-.084937.832116.096739 1.32419.970612.966873 1.717066-.050835.106196-.09077.169616-.158322.251427l-.042528.051504.060785.407577c.071078.476594.069245.466296.082986.466296.012772 0 .151176-.091962.233535-.155171.331893-.254725.602042-.65991.709724-1.064485.046583-.175021.060309-.273218.066325-.47454.008436-.282223-.020308-.480655-.105351-.72729C4.348445 1.020024 3.708247.497323 2.930647.388737c-.152875-.021347-.493101-.01634-.62877.009254-.429163.080962-.77637.255277-1.07553.539966-.574667.54687-.782069 1.367227-.53473 2.11507.14151.427864.431421.805865.813842 1.061128.049342.032935.093248.059883.097567.059883.00432 0 .010603-.015615.013962-.034698z"/></svg>