<svg xmlns="http://www.w3.org/2000/svg" xml:space="preserve" width="20" height="20" viewBox="0 0 5.2916665 5.2916666"><rect width="4.9829998" height="5.0160093" x=".16104648" y=".15419829" fill="#fff" rx=".40064773" ry=".43469799"/><rect width="5.0838313" height="5.0602775" x=".09657033" y=".11377437" fill="#fff" stroke="#000" stroke-linecap="round" stroke-linejoin="bevel" stroke-width=".221456" opacity=".34" rx=".40064773" ry=".43469799"/><path fill="#020502" d="M1.75858617 2.52464063c-.26639744 0-.49284044-.0932426-.67932026-.2797201-.1864798-.1864773-.2797201-.41292272-.2797201-.67932026 0-.26639744.0932403-.49284285.2797201-.67932026.18647982-.1864774.41292282-.2797201.67932026-.2797201.20779208 0 .3829528.04995002.5254742.14985006.14252139.09990003.24841543.23243142.31768212.39760215h1.47452455c.06593402 0 .12238144.0234725.16935054.07040954.04693693.046969.07040955.10341652.07040955.16935055v.34365612c0 .06593403-.02347262.12237355-.07040955.16931048-.0469691.04696911-.10341652.07044961-.16935054.07044961h-.18381607v.30769212c0 .06593402-.02347262.12237355-.07040955.16931069-.0469689.0469689-.10341651.0704494-.16935054.0704494h-.2637361c-.06593402 0-.12237355-.0234805-.16931069-.0704494-.0469689-.04693714-.0704494-.10337667-.0704494-.16931069v-.30769212h-.5474522c-.0692667.16517084-.17516073.29770212-.31768212.39760215-.1425214.09990004-.31768212.14985006-.5254742.14985006Zm0-.23976009c.18914674 0 .34431947-.06260147.46553417-.18781207.12121471-.1252106.19230358-.24509065.2132666-.35964014h.96755185v.54745221h.2477521v-.5474522h.42357615V1.3937722H2.43790642c-.02131467-.11454938-.09257137-.23442943-.21378608-.35964014C2.10290564.90892136 1.94773291.84632 1.75858617.84632c-.19980008 0-.36963014.06993003-.5094902.20979008-.13986004.13986005-.20979007.30969011-.20979007.50949019 0 .19980007.06993003.36963014.20979008.5094902.13986005.13986004.30969011.20979007.50949019.20979007Zm0-.44755217c.0772587 0 .14185805-.025974.19380607-.07792203.05194802-.05194802.07792203-.11654738.07792203-.19380607 0-.0772587-.025974-.14185805-.07792203-.19380607-.05194802-.05194802-.11654738-.07792203-.19380607-.07792203-.0772587 0-.14185805.025974-.19380607.07792203-.05194802.05194802-.07792203.11654738-.07792203.19380607 0 .0772587.025974.14185805.07792203.19380607.05194802.05194802.11654738.07792203.19380607.07792203Z"/><text xml:space="preserve" x=".39122114" y="3.9994442" fill="#0a6206" stroke="#fff" stroke-linecap="round" stroke-linejoin="bevel" stroke-width="0" font-family="Centaur" font-size="1.90776" font-weight="400" opacity=".80758017" style="-inkscape-font-specification:Centaur;text-align:start" transform="scale(.87488067 1.143013)"><tspan x=".39122114" y="3.9994442" font-family="Georgia" font-weight="700" style="-inkscape-font-specification:&quot;Georgia Bold&quot;">PPTP</tspan></text></svg>