<svg xmlns="http://www.w3.org/2000/svg" xml:space="preserve" width="20" height="20" viewBox="0 0 5.29 5.29"><rect width="4.98" height="5.02" x=".16" y=".15" fill="#fff" rx=".4" ry=".43"/><rect width="5.07" height="5.07" x=".11" y=".11" fill="#fff" stroke="#0b0b0b" stroke-linecap="round" stroke-linejoin="bevel" stroke-width=".22" opacity=".34" rx=".39" ry=".43" style="mix-blend-mode:normal"/><path stroke="#0b0b0b" stroke-linecap="round" stroke-linejoin="bevel" stroke-width=".01" d="M.72 4.44a.32.32 0 0 1-.2-.1c-.04-.06-.05-.08-.06-.47v-.3l-.07-.01c-.1-.01-.11-.05-.06-.1A.1.1 0 0 1 .4 3.4c.13-.02.23-.14.25-.3.01-.08.04-.12.1-.12.08 0 .09.02.1.24v.2h.1l.12.01v.1l-.1.01-.11.02-.01.32c0 .35 0 .36.07.36.04 0 .07-.03.12-.1l.03-.03.04.02.05.04c0 .03-.04.1-.07.15a.3.3 0 0 1-.2.1c-.08.02-.08.02-.17 0zm.59-.03-.01-.04c0-.03.03-.05.1-.08.04-.01.05-.02.06-.05V3.7c-.02-.08-.04-.1-.1-.12-.05 0-.06-.02-.06-.06 0-.03 0-.04.02-.05.03-.02.22-.05.4-.06h.09v.08l.02.44c.01.37.01.37.08.37.04 0 .06.02.06.06v.04l-.05.01h-.6zm.22-1.28a.18.18 0 0 1-.09-.16c0-.12.08-.2.2-.2.06 0 .1.02.15.1.04.07.04.14 0 .2-.03.06-.06.08-.15.08-.06 0-.08 0-.11-.02zm.69 1.29v-.06c0-.05 0-.05.05-.06.1-.03.1-.02.1-.36 0-.3-.01-.3-.03-.33a.12.12 0 0 0-.07-.05c-.05 0-.07-.03-.07-.07 0-.05.01-.05.16-.06.15-.02.3-.02.33 0 .02 0 .02.02.02.03 0 .03.02.07.04.07l.05-.03a.57.57 0 0 1 .38-.1c.12 0 .17.03.23.1s.07.09.07.24l.03.53.06.02c.05.02.07.05.05.1v.03H3v-.06c0-.04 0-.05.04-.07.07-.03.07-.05.07-.27 0-.25 0-.32-.05-.37-.02-.02-.04-.03-.09-.04-.07 0-.15.02-.19.06-.04.04-.04.09-.05.31 0 .25 0 .3.06.31.05.02.07.04.06.09v.04h-.64zm2.02.02a.56.56 0 0 1-.31-.27 1.07 1.07 0 0 1-.01-.42c.04-.17.17-.3.36-.34.1-.02.27-.02.37 0 .14.03.24.13.25.24 0 .05 0 .06-.03.1-.02.02-.03.03-.1.03-.08 0-.1-.02-.13-.1-.02-.1-.08-.14-.17-.14-.09 0-.15.07-.18.2a1.4 1.4 0 0 0 .03.45c.02.06.03.07.07.1l.1.04c.1 0 .13 0 .23-.1.09-.08.1-.09.13-.08.04.01.08.05.08.07 0 .03-.06.11-.13.15-.1.07-.18.1-.35.1-.12 0-.15-.01-.21-.03zm-2.87-2a.16.16 0 0 1-.04-.06.22.22 0 0 0-.03-.06.73.73 0 0 1-.05-.1c-.04-.07-.08-.1-.14-.1h-.04v.03c.03.11.03.1-.01.1-.08 0-.17-.06-.16-.11 0-.04 0-.06-.03-.06a2.5 2.5 0 0 1-.6-.17c-.02 0-.03-.02-.03-.04 0-.03.01-.05.04-.07.05-.04.1-.05.21-.07.1-.01.19-.05.25-.1.09-.06.34-.14.52-.17.11 0 .13-.01.16-.04s.03-.03.12-.02l.19.02c.1 0 .12 0 .08-.04l-.02-.03.03-.03.03-.03-.1-.02a25.42 25.42 0 0 1-.21-.03c.04 0 .06 0 .08-.03.02-.02.04-.02.1-.03l.1-.02.02-.1c0-.06.01-.1.02-.1.01-.02.03.04.04.12v.08h.12c.16 0 .29-.01.86-.11a15.15 15.15 0 0 1 .69-.1 36.2 36.2 0 0 0-1.4.26l-.04.01.03.01a4.78 4.78 0 0 0 .75.04 25.14 25.14 0 0 1-1.03.02s0 .02.03.04l.05.05c.02.04.23.11.47.15l.25.05c.05.02.05.02.06.06.02.1.17.17.5.22.2.04.9.14 1.01.15.07 0 .07 0 .1-.04.06-.05.2-.26.25-.36a.26.26 0 0 0 .04-.11c0-.05 0-.06-.09-.16-.08-.1-.1-.13-.07-.13a.7.7 0 0 1 .13.14c.07.1.11.08.15-.06.05-.19.09-.22.1-.08v.09h.06c.14.03.13.03.13.06a.7.7 0 0 1-.05.16c-.08.16-.08.18-.03.25.02.03.04.05.03.06l-.06-.03-.06-.03-.15.2c0 .02.01.04.06.1.11.11.11.13-.01.1-.09-.01-.11 0-.12.04 0 .05.03.07.11.1l.08.02-.03.03-.02.02.03.03c.02.03.02.06 0 .06s-.03-.01-.05-.03c-.01-.02-.02-.04-.01-.07v-.04l-.06-.02a7.83 7.83 0 0 0-1.44-.08l-.57-.01c-.1-.03-.13-.02-.13.03s-.01.05-.04 0l-.02-.05h-.1A2.1 2.1 0 0 0 2 2.18l-.06.06c-.06.05-.07.06-.25.03a.6.6 0 0 0-.13-.01l-.03.04c0 .07-.02.1-.06.13-.04.04-.06.04-.1 0Zm.02-.25c0-.04-.02-.07-.04-.07s-.02.06 0 .09.04.03.04-.02zm-.55-.44c.02-.02.02-.07-.01-.1-.04-.03-.05-.03-.05.04v.07l.06-.01Zm.14-.08a.15.15 0 0 1 .07-.05c.04-.01.05-.02.05-.05 0-.03 0-.03-.03-.03-.05 0-.1.01-.14.04-.03.02-.04.06-.03.1.02.03.06.02.08-.01Zm.37-.02c.06-.05.12-.1.12-.13a.04.04 0 0 0-.04-.04l-.03.04c0 .03-.04.03-.05 0-.01-.02-.02-.03-.06-.03-.05 0-.06.01-.07.11l.01.07c.02.02.06.01.12-.02z"/></svg>