<svg xmlns="http://www.w3.org/2000/svg" width="19.83" height="19.74" viewBox="-45 -75 6.45 11.1"><path d="M-36.24-69.42a5.52 5.5 0 0 1-5.46 5.5 5.52 5.5 0 0 1-5.58-5.36 5.52 5.5 0 0 1 5.31-5.64 5.52 5.5 0 0 1 5.72 5.23" style="fill:#fff;fill-opacity:1;stroke:#000;stroke-width:.00783098;stroke-linecap:round;stroke-linejoin:bevel;stroke-dasharray:none"/><g fill="#88171a" style="stroke-width:.998001;stroke-dasharray:none"><path d="M299.75 145.56S306.69 0 146.7 0C5.23 0 .8 139.63.8 139.63S-20 300 149.97 300c163.02 0 149.78-154.44 149.78-154.44zM101.94 94.7c30.01-18.37 68.36-7.14 82.73 20.47 2.72 5.24 3.07 13.3 1.34 18.79-5.95 18.95-20 29.58-39.3 34.1 5.68-4.87 10.21-10.4 11.65-18.03a26.4 26.4 0 0 0-4.54-20.95 26.76 26.76 0 0 0-30.81-9.4c-11.88 4.52-18.4 15.36-17.22 28.7 1.1 12.37 10.49 20.4 28.06 23.44-2.62 1.4-4.65 2.42-6.63 3.52a63.92 63.92 0 0 0-20.54 17.87c-1.78 2.4-3.01 2.6-5.73.94-35.34-21.61-37.6-75.84.99-99.45zM75.5 228.23c-5.68 1.44-11.18 3.57-16.98 5.48 2.83-19.16 25.26-36.8 44.23-34.78a48.88 48.88 0 0 0-9.25 25.9c-6.3 1.15-12.24 1.93-18 3.4zM196.29 41.25c5.6.2 11.23.12 16.84.25 1.4.1 2.8.29 4.17.58a40.6 40.6 0 0 1-4.24 5.44c-2 1.87-4.27 3.7-7.16.85-.7-.68-2.34-.53-3.55-.54-5.58-.07-11.17-.25-16.75-.04a104.04 104.04 0 0 0-14.42 1.47c-.9.16-2.23 3.13-1.82 4.23.97 2.58 2.38 5.43 4.47 7.09 7.74 6.1 15.98 11.6 23.75 17.66 7.56 5.9 14.6 12.36 18.88 21.25 5.58 11.6 5.74 23.75 3.34 35.95-4.02 20.38-14.34 37.26-31.04 49.53-6.72 4.94-15.06 7.74-22.76 11.3-6.78 3.11-13.76 5.8-20.55 8.9-12.25 5.56-19.13 18.86-17.1 32.68 1.85 12.69 12.98 23.27 25.73 25.46 15.29 2.62 31.07-7.32 34.8-22.86 4.21-17.48-5.28-33.09-23.06-37.82l-3.2-.82c4.76-2.13 8.86-3.64 12.65-5.73a347.93 347.93 0 0 0 19.48-11.56c1.88-1.2 2.9-1.2 4.5.18 12.22 10.57 19.5 23.72 21.55 39.84 3.39 26.69-9.24 51.2-33.07 63.76-36.86 19.44-81.96-2.68-90.1-43.55-6.98-35 17.73-66.75 47.46-72.88 12.78-2.64 24.48-7.96 33.57-17.8 5.86-6.36 8.7-11.81 9.67-14.27a39.56 39.56 0 0 0 2.73-14.47 33.87 33.87 0 0 0-2.97-12.4c-3.1-7.08-15-18.33-17.94-20.7l-28-21.93c-.99-.8-2.1-.75-4.5-.59-2.87.2-10.18.6-13.34-.22 2.56-1.94 9.52-4.75 12.5-7.01-9.07-6.13-19.43-3.92-28.94-5.75 2.2-4.1 13.08-10.39 19.27-11.09a91.53 91.53 0 0 0-1.68-10.28c-.38-1.4-1.94-2.74-3.29-3.54-3.29-1.92-6.77-3.51-10.55-5.43a21.94 21.94 0 0 1 11.33-3.5 42.32 42.32 0 0 1 11.35 1.1c6.74 1.54 12.12.54 17.49-4.05-4.22-1.7-8.45-3.25-12.54-5.09a123.04 123.04 0 0 1-11.78-6.16c10.62 1.48 20.9 5.46 31.76 4l.28-1.47-25.23-5.88c15.04-1.37 29.04-1.6 42.3 4.86 3.73 1.82 7.63 3.32 11.2 5.4 1.75 1 2.93 3 4.36 4.56 1.13 1.23 2.05 2.88 3.44 3.62 5.3 2.82 11.14 2.93 17.08 2.79l.13-2c5.99 1.88 12.72 8.77 12.7 13.81-9.68 0-19.37-.04-29.05.05-1.03.02-2.06.77-3.1 1.18.99.57 1.95 1.6 2.95 1.64z" style="stroke-width:.998001;stroke-dasharray:none" transform="matrix(.03718 0 0 .03701 -47.38 -75)"/><path d="M183.78 26.9a1.48 1.48 0 0 0-.18 2.38 2.23 2.23 0 0 0 3.07.82c.93-.47 1.85-.97 2.97-1.57-.9-.78-1.63-1.42-2.38-2.03-1.32-1.09-2.41-.4-3.47.4z" style="stroke-width:.998001;stroke-dasharray:none" transform="matrix(.03718 0 0 .03701 -47.38 -75)"/></g></svg>