<svg xmlns="http://www.w3.org/2000/svg" xmlns:xlink="http://www.w3.org/1999/xlink" xml:space="preserve" width="28.000004" height="28.000002" viewBox="0 0 7.4083342 7.4083338"><defs><linearGradient id="a"><stop offset="0"/><stop offset="1" stop-opacity=".41269842"/></linearGradient><linearGradient xlink:href="#a" id="b" x1="-8.8017044" x2="446.01785" y1="149.5462" y2="149.5462" gradientUnits="userSpaceOnUse"/><linearGradient xlink:href="#a" id="c" x1="-8.8017044" x2="446.01785" y1="149.5462" y2="149.5462" gradientUnits="userSpaceOnUse"/><linearGradient xlink:href="#a" id="d" x1="-8.8017044" x2="446.01785" y1="149.5462" y2="149.5462" gradientUnits="userSpaceOnUse"/><linearGradient xlink:href="#a" id="e" x1="-8.8017044" x2="446.01785" y1="149.5462" y2="149.5462" gradientUnits="userSpaceOnUse"/></defs><g stroke-linecap="square" stroke-linejoin="bevel" transform="translate(-41.024028 -66.530303)"><rect width="7.1923604" height="7.1923594" x="41.132015" y="66.63829" fill="#fff" stroke="#303030" stroke-width=".215974" rx="1.5648904" ry="1.5648904" style="mix-blend-mode:normal"/><text xml:space="preserve" x="47.087887" y="72.713951" stroke="#202020" stroke-width="0" font-family="'Bauhaus 93'" font-size="4.23333329" font-weight="400" style="-inkscape-font-specification:&quot;Bauhaus 93, &quot;" transform="scale(.99195947 1.0081057)"><tspan x="45.087769" y="72.713951" font-family="Calibri" font-weight="700" style="-inkscape-font-specification:&quot;Calibri Bold&quot;;text-align:center" text-anchor="middle">5</tspan></text><g fill="url(#b)" stroke="#202020" stroke-width="7.48026" paint-order="fill markers stroke" transform="matrix(.01452209 0 0 .01230657 41.637372 66.686666)"><path fill="url(#c)" d="M212.132 32.132C131.999 32.132 56.663 63.337 0 120l28.284 28.284c49.107-49.107 114.399-76.152 183.848-76.152 69.449 0 134.74 27.045 183.848 76.152L424.264 120c-56.663-56.663-131.999-87.868-212.132-87.868Z"/><path fill="url(#d)" d="m56.568 176.568 28.284 28.284c33.998-33.998 79.2-52.721 127.279-52.721 48.079 0 93.282 18.723 127.279 52.721l28.284-28.284c-41.553-41.553-96.799-64.437-155.563-64.437-58.764 0-114.01 22.885-155.563 64.437z"/><path fill="url(#e)" d="m113.137 233.137 28.284 28.284c38.99-38.989 102.432-38.989 141.422 0l28.284-28.284c-54.586-54.586-143.404-54.586-197.99 0z"/></g></g></svg>