<svg width="28" height="28.000004" viewBox="0 0 7.4083332 7.4083343" xml:space="preserve" xmlns:xlink="http://www.w3.org/1999/xlink" xmlns="http://www.w3.org/2000/svg"><defs><linearGradient id="a"><stop style="stop-color:#000;stop-opacity:1" offset="0"/><stop style="stop-color:#000;stop-opacity:.41269842" offset="1"/></linearGradient><linearGradient id="b"><stop style="stop-color:#202020;stop-opacity:1" offset="0"/><stop style="stop-color:#202020;stop-opacity:0" offset="1"/></linearGradient><linearGradient xlink:href="#a" id="c" x1="-8.8017044" y1="149.5462" x2="446.01785" y2="149.5462" gradientUnits="userSpaceOnUse"/><linearGradient xlink:href="#a" id="d" gradientUnits="userSpaceOnUse" x1="-8.8017044" y1="149.5462" x2="446.01785" y2="149.5462"/><linearGradient xlink:href="#a" id="e" gradientUnits="userSpaceOnUse" x1="-8.8017044" y1="149.5462" x2="446.01785" y2="149.5462"/><linearGradient xlink:href="#a" id="f" gradientUnits="userSpaceOnUse" x1="-8.8017044" y1="149.5462" x2="446.01785" y2="149.5462"/></defs><g transform="translate(-57.317135 -66.515464)"><rect style="display:inline;opacity:1;mix-blend-mode:normal;fill:#fff;fill-opacity:1;stroke:#303030;stroke-width:.215973;stroke-linecap:square;stroke-linejoin:bevel;stroke-dasharray:none;stroke-dashoffset:0;stroke-opacity:1;paint-order:normal" width="7.1923604" height="7.1923609" x="57.425121" y="66.623451" rx="1.5023183" ry="1.5023184"/><text xml:space="preserve" style="font-style:normal;font-variant:normal;font-weight:400;font-stretch:normal;font-size:4.32629px;font-family:'Bauhaus 93';-inkscape-font-specification:'Bauhaus 93, ';fill:#000;fill-opacity:1;stroke:#202020;stroke-width:0;stroke-linecap:square;stroke-linejoin:bevel;stroke-opacity:1" x="60.008747" y="72.743202" transform="scale(.99196 1.0081)"><tspan style="font-style:normal;font-variant:normal;font-weight:400;font-stretch:normal;font-size:4.32629px;font-family:'Rockwell Extra Bold';-inkscape-font-specification:'Rockwell Extra Bold, ';fill:#000;fill-opacity:1;stroke-width:0" x="60.008747" y="72.743202">6</tspan></text><g transform="matrix(.01452 0 0 .0123 57.928882 66.646626)" style="fill:url(#c);fill-opacity:1;stroke:url(#radialGradient39-3-1-7);stroke-width:26.7375;stroke-dasharray:213.9,26.7375;stroke-dashoffset:0;paint-order:stroke fill markers"><path style="fill:url(#d);fill-opacity:1;stroke:#202020;stroke-width:7.48026;stroke-linecap:square;stroke-linejoin:bevel;stroke-dasharray:none;stroke-dashoffset:0;stroke-opacity:1;paint-order:fill markers stroke" d="M212.132 32.132C131.999 32.132 56.663 63.337 0 120l28.284 28.284c49.107-49.107 114.399-76.152 183.848-76.152 69.449 0 134.74 27.045 183.848 76.152L424.264 120c-56.663-56.663-131.999-87.868-212.132-87.868Z"/><path style="fill:url(#e);fill-opacity:1;stroke:#202020;stroke-width:7.48026;stroke-linecap:square;stroke-linejoin:bevel;stroke-dasharray:none;stroke-dashoffset:0;stroke-opacity:1;paint-order:fill markers stroke" d="m56.568 176.568 28.284 28.284c33.998-33.998 79.2-52.721 127.279-52.721 48.079 0 93.282 18.723 127.279 52.721l28.284-28.284c-41.553-41.553-96.799-64.437-155.563-64.437-58.764 0-114.01 22.885-155.563 64.437z"/><path style="fill:url(#f);fill-opacity:1;stroke:#202020;stroke-width:7.48026;stroke-linecap:square;stroke-linejoin:bevel;stroke-dasharray:none;stroke-dashoffset:0;stroke-opacity:1;paint-order:fill markers stroke" d="m113.137 233.137 28.284 28.284c38.99-38.989 102.432-38.989 141.422 0l28.284-28.284c-54.586-54.586-143.404-54.586-197.99 0z"/></g></g></svg>